<svg width="38" height="38" viewBox="0 0 38 38" fill="none" xmlns="http://www.w3.org/2000/svg">
<path d="M26.8229 23.6979H25.1771L24.5938 23.1354C26.6354 20.7604 27.8646 17.6771 27.8646 14.3229C27.8646 6.84375 21.8021 0.78125 14.3229 0.78125C6.84375 0.78125 0.78125 6.84375 0.78125 14.3229C0.78125 21.8021 6.84375 27.8646 14.3229 27.8646C17.6771 27.8646 20.7604 26.6354 23.1354 24.5938L23.6979 25.1771V26.8229L34.1146 37.2188L37.2188 34.1146L26.8229 23.6979ZM14.3229 23.6979C9.13542 23.6979 4.94792 19.5104 4.94792 14.3229C4.94792 9.13542 9.13542 4.94792 14.3229 4.94792C19.5104 4.94792 23.6979 9.13542 23.6979 14.3229C23.6979 19.5104 19.5104 23.6979 14.3229 23.6979Z" fill="#0F2B49"/>
</svg>
