<svg width="220" height="300" viewBox="0 0 220 300" fill="none" xmlns="http://www.w3.org/2000/svg">
<ellipse cx="107.143" cy="267.857" rx="107.143" ry="32.1429" fill="#7FA932"/>
<circle cx="61.6071" cy="163.393" r="53.5714" fill="#7FA932"/>
<circle cx="52.2324" cy="159.375" r="20.0893" fill="#7FA932"/>
<circle cx="52.2324" cy="159.375" r="20.0893" fill="black" fill-opacity="0.2"/>
<circle cx="147.322" cy="21.4286" r="21.4286" fill="#7FA932"/>
<circle cx="147.322" cy="21.4286" r="21.4286" fill="black" fill-opacity="0.2"/>
<circle cx="160.714" cy="120.536" r="58.9286" fill="#7FA932"/>
<circle cx="150" cy="101.786" r="16.0714" fill="#7FA932"/>
<circle cx="150" cy="101.786" r="16.0714" fill="black" fill-opacity="0.2"/>
<circle cx="182.143" cy="117.857" r="26.7857" fill="#7FA932"/>
<circle cx="182.143" cy="117.857" r="26.7857" fill="black" fill-opacity="0.2"/>
<path d="M96.4286 265.178L77.6786 273.214L76.3394 278.571" stroke="#3A1A0E" stroke-width="2"/>
<path d="M99.1069 265.178V281.25" stroke="#3A1A0E" stroke-width="2"/>
<path d="M101.786 265.178L115.179 273.214" stroke="#3A1A0E" stroke-width="2"/>
<path d="M120.536 265.178L133.929 266.518" stroke="#3A1A0E" stroke-width="2"/>
<path d="M117.857 265.178L123.214 273.214" stroke="#3A1A0E" stroke-width="2"/>
<path d="M93.75 262.5L56.25 270.536L61.6071 277.232" stroke="#3A1A0E" stroke-width="2"/>
<path d="M120.536 262.5L151.339 265.179" stroke="#3A1A0E" stroke-width="2"/>
<path d="M101.786 10.7144H112.5L123.214 267.857H91.0713L101.786 10.7144Z" fill="#3A1A0E"/>
<path d="M107.143 61.6072L147.322 24.1072" stroke="#3A1A0E" stroke-width="2"/>
<path d="M100.446 200.893L54.9106 155.357" stroke="#3A1A0E" stroke-width="2"/>
<path d="M107.143 170.089L179.464 97.7678" stroke="#3A1A0E" stroke-width="2"/>
<path d="M148.661 128.571V101.786" stroke="#3A1A0E" stroke-width="2"/>
<path d="M141.964 135.268L188.839 124.553" stroke="#3A1A0E" stroke-width="2"/>
</svg>
