<svg width="42" height="42" viewBox="0 0 42 42" fill="none" xmlns="http://www.w3.org/2000/svg">
<path d="M40.7498 24.6819L24.1248 14.8902V3.43188C24.1248 1.70272 22.729 0.306885 20.9998 0.306885C19.2707 0.306885 17.8748 1.70272 17.8748 3.43188V14.8902L1.24984 24.6819C0.583171 25.0569 0.166504 25.7861 0.166504 26.5569C0.166504 28.0152 1.56234 29.0569 2.95817 28.661L17.8748 24.2861V35.7235L13.1665 38.536C12.854 38.7235 12.6665 39.0777 12.6665 39.4319V40.6402C12.6665 41.3277 13.3123 41.8277 13.9582 41.661L20.0415 40.1402L20.9998 39.8902L21.7915 40.0777L22.6665 40.3069L26.6248 41.3069L28.0207 41.661C28.6873 41.8277 29.3123 41.3277 29.3123 40.6402V39.4319C29.3123 39.0569 29.1248 38.7235 28.8123 38.536L24.1248 35.7235V24.2652L39.0415 28.6402C40.4373 29.0569 41.8332 28.0152 41.8332 26.5569C41.8332 25.7861 41.4165 25.0569 40.7498 24.6819Z" fill="#0F2B49"/>
</svg>
